<svg width="146" height="48" xmlns="http://www.w3.org/2000/svg"><g fill-rule="nonzero" fill="none"><path fill="#181818" d="M58 37.908v-2.71h2.066V12.715H58V10h13.65v7.532h-3.48v-4.817h-4.628v9.328h5.393v2.715h-5.393v10.44h4.668v-4.934h3.476v7.644H58zM87.975 12.715v25.193h-2.908L78.723 19.14v16.059h1.873v2.71h-7.037v-2.71h2.067V12.715h-2.067V10h5.277l6.041 17.932V12.715h-1.873V10h7.033v2.715h-2.062zM104.924 37.913c-1.833 0-2.98-.69-2.98-3.327v-6.807c0-1.567-.613-2.598-2.64-2.598h-2.142v10.017h1.99v2.715H91.62v-2.715h2.066V12.715H91.62V10h8.055c3.936 0 5.696 1.611 5.696 5.164v4.833c0 2.139-.806 3.403-2.945 3.863 1.95.455 2.985 1.643 2.985 3.745v6.537c0 .842.19 1.072.99 1.072h.867v2.715l-2.344-.017zm-3.021-22.596c0-1.567-.612-2.602-2.638-2.602h-2.103v9.751h2.103c1.99 0 2.638-.959 2.638-2.602v-4.547zM108.802 37.908v-2.71h2.067V12.715h-2.067V10h7.609v2.715h-2.062v22.483h2.062v2.71h-7.609zM132.055 37.908v-2.71h2.066V12.715h-2.066V10h13.65v7.532h-3.48v-4.817h-4.628v9.328h5.393v2.715h-5.393v10.44h4.664v-4.934h3.48v7.644h-13.686zM124.269 38.293c-3.71 0-5.889-1.071-5.889-4.777v-3.222h3.48v3.194c0 1.53.572 2.103 2.417 2.103 1.68 0 2.417-.403 2.417-2.103v-6.283c0-1.261-.194-1.49-1.53-1.756l-3.328-.5c-2.368-.306-3.363-1.208-3.363-4.028v-6.444c0-3.246 1.76-4.777 5.812-4.777 3.593 0 5.812 1.26 5.812 4.777v3.097h-3.496v-3.057c0-1.49-.612-2.102-2.332-2.102-1.49 0-2.332.459-2.332 2.102V20.1c0 1.337.266 1.53 1.526 1.76l3.327.495c2.332.306 3.364 1.261 3.364 4.028v7.15c0 3.363-1.91 4.776-5.885 4.776v-.016z"/><path fill="#F2A900" d="M0 0h48v48H0z"/><path fill="#FFF" d="M38 38H27V21H10V10h28z"/></g></svg>